<mxfile host="65bd71144e">
    <diagram id="WG6kwbfiC4xbp1jkfApG" name="Page-1">
        <mxGraphModel dx="1216" dy="765" grid="1" gridSize="8" guides="1" tooltips="1" connect="1" arrows="1" fold="1" page="1" pageScale="1" pageWidth="850" pageHeight="1100" math="0" shadow="0">
            <root>
                <mxCell id="0"/>
                <mxCell id="1" parent="0"/>
                <mxCell id="2" value="Kadena AB" style="rounded=0;whiteSpace=wrap;html=1;" parent="1" vertex="1">
                    <mxGeometry x="352" y="273" width="120" height="60" as="geometry"/>
                </mxCell>
                <mxCell id="3" value="Group" style="rounded=0;whiteSpace=wrap;html=1;" parent="1" vertex="1">
                    <mxGeometry x="40" y="401" width="120" height="60" as="geometry"/>
                </mxCell>
                <mxCell id="4" value="Tenate" style="rounded=0;whiteSpace=wrap;html=1;" parent="1" vertex="1">
                    <mxGeometry x="672" y="401" width="120" height="60" as="geometry"/>
                </mxCell>
                <mxCell id="5" value="Group" style="rounded=0;whiteSpace=wrap;html=1;" parent="1" vertex="1">
                    <mxGeometry x="512" y="401" width="120" height="60" as="geometry"/>
                </mxCell>
                <mxCell id="6" value="Group" style="rounded=0;whiteSpace=wrap;html=1;" parent="1" vertex="1">
                    <mxGeometry x="352" y="401" width="120" height="60" as="geometry"/>
                </mxCell>
                <mxCell id="7" value="18 MSG" style="rounded=0;whiteSpace=wrap;html=1;" parent="1" vertex="1">
                    <mxGeometry x="200" y="401" width="120" height="60" as="geometry"/>
                </mxCell>
                <mxCell id="8" value="Unit" style="rounded=0;whiteSpace=wrap;html=1;" parent="1" vertex="1">
                    <mxGeometry x="64" y="605" width="120" height="60" as="geometry"/>
                </mxCell>
                <mxCell id="9" value="" style="endArrow=none;html=1;" parent="1" edge="1">
                    <mxGeometry width="50" height="50" relative="1" as="geometry">
                        <mxPoint x="128" y="369" as="sourcePoint"/>
                        <mxPoint x="832" y="369" as="targetPoint"/>
                    </mxGeometry>
                </mxCell>
                <mxCell id="10" value="" style="endArrow=none;html=1;entryX=0.5;entryY=1;entryDx=0;entryDy=0;exitX=0.5;exitY=0;exitDx=0;exitDy=0;" parent="1" source="6" target="2" edge="1">
                    <mxGeometry width="50" height="50" relative="1" as="geometry">
                        <mxPoint x="552" y="595" as="sourcePoint"/>
                        <mxPoint x="602" y="545" as="targetPoint"/>
                    </mxGeometry>
                </mxCell>
                <mxCell id="11" value="" style="endArrow=none;html=1;" parent="1" edge="1">
                    <mxGeometry width="50" height="50" relative="1" as="geometry">
                        <mxPoint x="128" y="369" as="sourcePoint"/>
                        <mxPoint x="128" y="401" as="targetPoint"/>
                    </mxGeometry>
                </mxCell>
                <mxCell id="12" value="" style="endArrow=none;html=1;" parent="1" edge="1">
                    <mxGeometry width="50" height="50" relative="1" as="geometry">
                        <mxPoint x="256" y="369" as="sourcePoint"/>
                        <mxPoint x="256" y="401" as="targetPoint"/>
                    </mxGeometry>
                </mxCell>
                <mxCell id="13" value="" style="endArrow=none;html=1;" parent="1" edge="1">
                    <mxGeometry width="50" height="50" relative="1" as="geometry">
                        <mxPoint x="576" y="369" as="sourcePoint"/>
                        <mxPoint x="576" y="400.9999999999999" as="targetPoint"/>
                    </mxGeometry>
                </mxCell>
                <mxCell id="14" value="" style="endArrow=none;html=1;" parent="1" edge="1">
                    <mxGeometry width="50" height="50" relative="1" as="geometry">
                        <mxPoint x="731.66" y="369" as="sourcePoint"/>
                        <mxPoint x="731.66" y="400.9999999999999" as="targetPoint"/>
                    </mxGeometry>
                </mxCell>
                <mxCell id="16" value="18 CS" style="rounded=0;whiteSpace=wrap;html=1;" parent="1" vertex="1">
                    <mxGeometry x="200" y="605" width="120" height="60" as="geometry"/>
                </mxCell>
                <mxCell id="17" value="Unit" style="rounded=0;whiteSpace=wrap;html=1;" parent="1" vertex="1">
                    <mxGeometry x="328" y="605" width="120" height="60" as="geometry"/>
                </mxCell>
                <mxCell id="18" value="Unit" style="rounded=0;whiteSpace=wrap;html=1;" parent="1" vertex="1">
                    <mxGeometry x="456" y="605" width="120" height="60" as="geometry"/>
                </mxCell>
                <mxCell id="19" value="Unit" style="rounded=0;whiteSpace=wrap;html=1;" parent="1" vertex="1">
                    <mxGeometry x="584" y="605" width="120" height="60" as="geometry"/>
                </mxCell>
                <mxCell id="23" value="" style="endArrow=none;html=1;" parent="1" edge="1">
                    <mxGeometry width="50" height="50" relative="1" as="geometry">
                        <mxPoint x="84" y="573" as="sourcePoint"/>
                        <mxPoint x="692" y="573" as="targetPoint"/>
                    </mxGeometry>
                </mxCell>
                <mxCell id="24" value="" style="endArrow=none;html=1;entryX=0.5;entryY=1;entryDx=0;entryDy=0;" parent="1" edge="1">
                    <mxGeometry width="50" height="50" relative="1" as="geometry">
                        <mxPoint x="260" y="601" as="sourcePoint"/>
                        <mxPoint x="259.5" y="461" as="targetPoint"/>
                    </mxGeometry>
                </mxCell>
                <mxCell id="25" value="" style="endArrow=none;html=1;" parent="1" edge="1">
                    <mxGeometry width="50" height="50" relative="1" as="geometry">
                        <mxPoint x="99.5" y="573" as="sourcePoint"/>
                        <mxPoint x="99.5" y="605" as="targetPoint"/>
                    </mxGeometry>
                </mxCell>
                <mxCell id="26" value="" style="endArrow=none;html=1;" parent="1" edge="1">
                    <mxGeometry width="50" height="50" relative="1" as="geometry">
                        <mxPoint x="259.5" y="665" as="sourcePoint"/>
                        <mxPoint x="259.5" y="697" as="targetPoint"/>
                    </mxGeometry>
                </mxCell>
                <mxCell id="27" value="" style="endArrow=none;html=1;" parent="1" edge="1">
                    <mxGeometry width="50" height="50" relative="1" as="geometry">
                        <mxPoint x="640" y="573" as="sourcePoint"/>
                        <mxPoint x="640" y="605" as="targetPoint"/>
                    </mxGeometry>
                </mxCell>
                <mxCell id="28" value="" style="endArrow=none;html=1;" parent="1" edge="1">
                    <mxGeometry width="50" height="50" relative="1" as="geometry">
                        <mxPoint x="512" y="573" as="sourcePoint"/>
                        <mxPoint x="512" y="605" as="targetPoint"/>
                    </mxGeometry>
                </mxCell>
                <mxCell id="29" value="" style="endArrow=none;html=1;" parent="1" edge="1">
                    <mxGeometry width="50" height="50" relative="1" as="geometry">
                        <mxPoint x="387.5" y="573" as="sourcePoint"/>
                        <mxPoint x="387.5" y="605" as="targetPoint"/>
                    </mxGeometry>
                </mxCell>
                <mxCell id="30" value="Internal" style="rounded=0;whiteSpace=wrap;html=1;" parent="1" vertex="1">
                    <mxGeometry x="200" y="693" width="120" height="60" as="geometry"/>
                </mxCell>
                <mxCell id="32" value="Internal" style="rounded=0;whiteSpace=wrap;html=1;" parent="1" vertex="1">
                    <mxGeometry x="64" y="693" width="120" height="60" as="geometry"/>
                </mxCell>
                <mxCell id="33" value="Internal" style="rounded=0;whiteSpace=wrap;html=1;" parent="1" vertex="1">
                    <mxGeometry x="328" y="693" width="120" height="60" as="geometry"/>
                </mxCell>
                <mxCell id="34" value="Internal" style="rounded=0;whiteSpace=wrap;html=1;" parent="1" vertex="1">
                    <mxGeometry x="456" y="693" width="120" height="60" as="geometry"/>
                </mxCell>
                <mxCell id="35" value="Internal" style="rounded=0;whiteSpace=wrap;html=1;" parent="1" vertex="1">
                    <mxGeometry x="584" y="693" width="120" height="60" as="geometry"/>
                </mxCell>
                <mxCell id="38" value="" style="endArrow=none;html=1;" parent="1" edge="1">
                    <mxGeometry width="50" height="50" relative="1" as="geometry">
                        <mxPoint x="643.5" y="665" as="sourcePoint"/>
                        <mxPoint x="643.5" y="697" as="targetPoint"/>
                    </mxGeometry>
                </mxCell>
                <mxCell id="39" value="" style="endArrow=none;html=1;" parent="1" edge="1">
                    <mxGeometry width="50" height="50" relative="1" as="geometry">
                        <mxPoint x="515.5" y="665" as="sourcePoint"/>
                        <mxPoint x="515.5" y="697" as="targetPoint"/>
                    </mxGeometry>
                </mxCell>
                <mxCell id="40" value="" style="endArrow=none;html=1;" parent="1" edge="1">
                    <mxGeometry width="50" height="50" relative="1" as="geometry">
                        <mxPoint x="387.5" y="661" as="sourcePoint"/>
                        <mxPoint x="387.5" y="693" as="targetPoint"/>
                    </mxGeometry>
                </mxCell>
                <mxCell id="41" value="" style="endArrow=none;html=1;" parent="1" edge="1">
                    <mxGeometry width="50" height="50" relative="1" as="geometry">
                        <mxPoint x="128" y="665" as="sourcePoint"/>
                        <mxPoint x="128" y="697" as="targetPoint"/>
                    </mxGeometry>
                </mxCell>
                <mxCell id="42" value="SOW" style="rounded=0;whiteSpace=wrap;html=1;" vertex="1" parent="1">
                    <mxGeometry x="376" y="807" width="120" height="60" as="geometry"/>
                </mxCell>
                <mxCell id="43" value="Group" style="rounded=0;whiteSpace=wrap;html=1;" vertex="1" parent="1">
                    <mxGeometry x="64" y="935" width="120" height="60" as="geometry"/>
                </mxCell>
                <mxCell id="44" value="Group" style="rounded=0;whiteSpace=wrap;html=1;" vertex="1" parent="1">
                    <mxGeometry x="696" y="935" width="120" height="60" as="geometry"/>
                </mxCell>
                <mxCell id="45" value="Group" style="rounded=0;whiteSpace=wrap;html=1;" vertex="1" parent="1">
                    <mxGeometry x="536" y="935" width="120" height="60" as="geometry"/>
                </mxCell>
                <mxCell id="46" value="Group" style="rounded=0;whiteSpace=wrap;html=1;" vertex="1" parent="1">
                    <mxGeometry x="376" y="935" width="120" height="60" as="geometry"/>
                </mxCell>
                <mxCell id="47" value="Group" style="rounded=0;whiteSpace=wrap;html=1;" vertex="1" parent="1">
                    <mxGeometry x="224" y="935" width="120" height="60" as="geometry"/>
                </mxCell>
                <mxCell id="48" value="Unit" style="rounded=0;whiteSpace=wrap;html=1;" vertex="1" parent="1">
                    <mxGeometry x="88" y="1114" width="120" height="60" as="geometry"/>
                </mxCell>
                <mxCell id="49" value="" style="endArrow=none;html=1;" edge="1" parent="1">
                    <mxGeometry width="50" height="50" relative="1" as="geometry">
                        <mxPoint x="152" y="903" as="sourcePoint"/>
                        <mxPoint x="760" y="903" as="targetPoint"/>
                    </mxGeometry>
                </mxCell>
                <mxCell id="50" value="" style="endArrow=none;html=1;entryX=0.5;entryY=1;entryDx=0;entryDy=0;exitX=0.5;exitY=0;exitDx=0;exitDy=0;" edge="1" parent="1" source="46" target="42">
                    <mxGeometry width="50" height="50" relative="1" as="geometry">
                        <mxPoint x="576" y="1129" as="sourcePoint"/>
                        <mxPoint x="626" y="1079" as="targetPoint"/>
                    </mxGeometry>
                </mxCell>
                <mxCell id="51" value="" style="endArrow=none;html=1;" edge="1" parent="1">
                    <mxGeometry width="50" height="50" relative="1" as="geometry">
                        <mxPoint x="152" y="903" as="sourcePoint"/>
                        <mxPoint x="152" y="935" as="targetPoint"/>
                    </mxGeometry>
                </mxCell>
                <mxCell id="52" value="" style="endArrow=none;html=1;" edge="1" parent="1">
                    <mxGeometry width="50" height="50" relative="1" as="geometry">
                        <mxPoint x="280" y="903" as="sourcePoint"/>
                        <mxPoint x="280" y="935" as="targetPoint"/>
                    </mxGeometry>
                </mxCell>
                <mxCell id="53" value="" style="endArrow=none;html=1;" edge="1" parent="1">
                    <mxGeometry width="50" height="50" relative="1" as="geometry">
                        <mxPoint x="600" y="903" as="sourcePoint"/>
                        <mxPoint x="600" y="934.9999999999999" as="targetPoint"/>
                    </mxGeometry>
                </mxCell>
                <mxCell id="54" value="" style="endArrow=none;html=1;" edge="1" parent="1">
                    <mxGeometry width="50" height="50" relative="1" as="geometry">
                        <mxPoint x="755.6599999999999" y="903" as="sourcePoint"/>
                        <mxPoint x="755.6599999999999" y="934.9999999999999" as="targetPoint"/>
                    </mxGeometry>
                </mxCell>
                <mxCell id="55" value="Unit" style="rounded=0;whiteSpace=wrap;html=1;" vertex="1" parent="1">
                    <mxGeometry x="224" y="1114" width="120" height="60" as="geometry"/>
                </mxCell>
                <mxCell id="56" value="Unit" style="rounded=0;whiteSpace=wrap;html=1;" vertex="1" parent="1">
                    <mxGeometry x="352" y="1114" width="120" height="60" as="geometry"/>
                </mxCell>
                <mxCell id="57" value="Unit" style="rounded=0;whiteSpace=wrap;html=1;" vertex="1" parent="1">
                    <mxGeometry x="480" y="1114" width="120" height="60" as="geometry"/>
                </mxCell>
                <mxCell id="58" value="Unit" style="rounded=0;whiteSpace=wrap;html=1;" vertex="1" parent="1">
                    <mxGeometry x="608" y="1114" width="120" height="60" as="geometry"/>
                </mxCell>
                <mxCell id="59" value="" style="endArrow=none;html=1;" edge="1" parent="1">
                    <mxGeometry width="50" height="50" relative="1" as="geometry">
                        <mxPoint x="108" y="1082" as="sourcePoint"/>
                        <mxPoint x="716" y="1082" as="targetPoint"/>
                    </mxGeometry>
                </mxCell>
                <mxCell id="60" value="" style="endArrow=none;html=1;entryX=0.5;entryY=1;entryDx=0;entryDy=0;" edge="1" parent="1">
                    <mxGeometry width="50" height="50" relative="1" as="geometry">
                        <mxPoint x="284" y="1113" as="sourcePoint"/>
                        <mxPoint x="283.5" y="995" as="targetPoint"/>
                    </mxGeometry>
                </mxCell>
                <mxCell id="61" value="" style="endArrow=none;html=1;" edge="1" parent="1">
                    <mxGeometry width="50" height="50" relative="1" as="geometry">
                        <mxPoint x="123.5" y="1082" as="sourcePoint"/>
                        <mxPoint x="123.5" y="1114" as="targetPoint"/>
                    </mxGeometry>
                </mxCell>
                <mxCell id="62" value="" style="endArrow=none;html=1;" edge="1" parent="1">
                    <mxGeometry width="50" height="50" relative="1" as="geometry">
                        <mxPoint x="283.5" y="1174" as="sourcePoint"/>
                        <mxPoint x="283.5" y="1206" as="targetPoint"/>
                    </mxGeometry>
                </mxCell>
                <mxCell id="63" value="" style="endArrow=none;html=1;" edge="1" parent="1">
                    <mxGeometry width="50" height="50" relative="1" as="geometry">
                        <mxPoint x="664" y="1082" as="sourcePoint"/>
                        <mxPoint x="664" y="1114" as="targetPoint"/>
                    </mxGeometry>
                </mxCell>
                <mxCell id="64" value="" style="endArrow=none;html=1;" edge="1" parent="1">
                    <mxGeometry width="50" height="50" relative="1" as="geometry">
                        <mxPoint x="536" y="1082" as="sourcePoint"/>
                        <mxPoint x="536" y="1114" as="targetPoint"/>
                    </mxGeometry>
                </mxCell>
                <mxCell id="65" value="" style="endArrow=none;html=1;" edge="1" parent="1">
                    <mxGeometry width="50" height="50" relative="1" as="geometry">
                        <mxPoint x="411.5" y="1082" as="sourcePoint"/>
                        <mxPoint x="411.5" y="1114" as="targetPoint"/>
                    </mxGeometry>
                </mxCell>
                <mxCell id="66" value="Internal" style="rounded=0;whiteSpace=wrap;html=1;" vertex="1" parent="1">
                    <mxGeometry x="224" y="1202" width="120" height="60" as="geometry"/>
                </mxCell>
                <mxCell id="67" value="Internal" style="rounded=0;whiteSpace=wrap;html=1;" vertex="1" parent="1">
                    <mxGeometry x="88" y="1202" width="120" height="60" as="geometry"/>
                </mxCell>
                <mxCell id="68" value="Internal" style="rounded=0;whiteSpace=wrap;html=1;" vertex="1" parent="1">
                    <mxGeometry x="352" y="1202" width="120" height="60" as="geometry"/>
                </mxCell>
                <mxCell id="69" value="Internal" style="rounded=0;whiteSpace=wrap;html=1;" vertex="1" parent="1">
                    <mxGeometry x="480" y="1202" width="120" height="60" as="geometry"/>
                </mxCell>
                <mxCell id="70" value="Internal" style="rounded=0;whiteSpace=wrap;html=1;" vertex="1" parent="1">
                    <mxGeometry x="608" y="1202" width="120" height="60" as="geometry"/>
                </mxCell>
                <mxCell id="71" value="" style="endArrow=none;html=1;" edge="1" parent="1">
                    <mxGeometry width="50" height="50" relative="1" as="geometry">
                        <mxPoint x="667.5" y="1174" as="sourcePoint"/>
                        <mxPoint x="667.5" y="1206" as="targetPoint"/>
                    </mxGeometry>
                </mxCell>
                <mxCell id="72" value="" style="endArrow=none;html=1;" edge="1" parent="1">
                    <mxGeometry width="50" height="50" relative="1" as="geometry">
                        <mxPoint x="539.5" y="1174" as="sourcePoint"/>
                        <mxPoint x="539.5" y="1206" as="targetPoint"/>
                    </mxGeometry>
                </mxCell>
                <mxCell id="73" value="" style="endArrow=none;html=1;" edge="1" parent="1">
                    <mxGeometry width="50" height="50" relative="1" as="geometry">
                        <mxPoint x="411.5" y="1170" as="sourcePoint"/>
                        <mxPoint x="411.5" y="1202" as="targetPoint"/>
                    </mxGeometry>
                </mxCell>
                <mxCell id="74" value="" style="endArrow=none;html=1;" edge="1" parent="1">
                    <mxGeometry width="50" height="50" relative="1" as="geometry">
                        <mxPoint x="152" y="1174" as="sourcePoint"/>
                        <mxPoint x="152" y="1206" as="targetPoint"/>
                    </mxGeometry>
                </mxCell>
                <mxCell id="75" value="" style="endArrow=none;html=1;entryX=1;entryY=0.5;entryDx=0;entryDy=0;" edge="1" parent="1" target="42">
                    <mxGeometry width="50" height="50" relative="1" as="geometry">
                        <mxPoint x="832" y="837" as="sourcePoint"/>
                        <mxPoint x="578" y="505" as="targetPoint"/>
                    </mxGeometry>
                </mxCell>
                <mxCell id="76" value="" style="endArrow=none;html=1;" edge="1" parent="1">
                    <mxGeometry width="50" height="50" relative="1" as="geometry">
                        <mxPoint x="832" y="849" as="sourcePoint"/>
                        <mxPoint x="832" y="369" as="targetPoint"/>
                    </mxGeometry>
                </mxCell>
                <mxCell id="82" value="Permissions&lt;br&gt;&lt;br&gt;Kadena Content Managers - Us. Full Control. Universal&lt;br&gt;&lt;br&gt;&lt;span style=&quot;white-space: pre;&quot;&gt;&#9;&lt;/span&gt;Kadena AB Visitors - Read. Universal for whenever there is public information for a wide audiance&lt;br&gt;&lt;br&gt;(GROUP or UNIT) Content Managers - Design/Edit. Tied to respective Group or Unit. Could have exception for programs like NEo that are WG wide.&lt;br&gt;&lt;br&gt;&lt;span style=&quot;white-space: pre;&quot;&gt;&#9;&lt;/span&gt;(GROUP or UNIT) Memebers - Contibute/Read. Tied to respective Group or Unit. Could be replaced by Mail enabled secuirty group&lt;br&gt;&lt;br&gt;&lt;span style=&quot;white-space: pre;&quot;&gt;&#9;&lt;/span&gt;(Office or Process) Owners - Design/Edit. Tied to specific process within a group or unit&amp;nbsp; and would only have this permission level to resources related to &lt;span style=&quot;white-space: pre;&quot;&gt;&#9;&lt;/span&gt;it&lt;br&gt;&lt;br&gt;&lt;span style=&quot;white-space: pre;&quot;&gt;&#9;&lt;/span&gt;(Office or Process) Contributers - Contribute/Read. Tied to specific process within a group or unit&amp;nbsp; and would only have this permission level to resources &lt;span style=&quot;white-space: pre;&quot;&gt;&#9;&lt;/span&gt;related to it, but could include members from other units." style="rounded=0;whiteSpace=wrap;html=1;align=left;" vertex="1" parent="1">
                    <mxGeometry y="1" width="848" height="256" as="geometry"/>
                </mxCell>
                <mxCell id="83" value="Internal" style="rounded=0;whiteSpace=wrap;html=1;" vertex="1" parent="1">
                    <mxGeometry x="290" y="497" width="120" height="60" as="geometry"/>
                </mxCell>
                <mxCell id="85" value="" style="endArrow=none;html=1;entryX=0.75;entryY=1;entryDx=0;entryDy=0;exitX=0;exitY=0;exitDx=0;exitDy=0;" edge="1" parent="1" source="83" target="7">
                    <mxGeometry width="50" height="50" relative="1" as="geometry">
                        <mxPoint x="528" y="635" as="sourcePoint"/>
                        <mxPoint x="578" y="585" as="targetPoint"/>
                    </mxGeometry>
                </mxCell>
                <mxCell id="86" value="Internal" style="rounded=0;whiteSpace=wrap;html=1;" vertex="1" parent="1">
                    <mxGeometry x="305" y="1016" width="120" height="60" as="geometry"/>
                </mxCell>
                <mxCell id="87" value="" style="endArrow=none;html=1;entryX=0.75;entryY=1;entryDx=0;entryDy=0;exitX=0;exitY=0;exitDx=0;exitDy=0;" edge="1" parent="1">
                    <mxGeometry width="50" height="50" relative="1" as="geometry">
                        <mxPoint x="344" y="1016" as="sourcePoint"/>
                        <mxPoint x="344" y="980" as="targetPoint"/>
                    </mxGeometry>
                </mxCell>
            </root>
        </mxGraphModel>
    </diagram>
</mxfile>